<?xml version="1.0" standalone="no"?>
<!DOCTYPE svg PUBLIC "-//W3C//DTD SVG 20010904//EN"
 "http://www.w3.org/TR/2001/REC-SVG-20010904/DTD/svg10.dtd">
<svg version="1.0" xmlns="http://www.w3.org/2000/svg"
 width="1200.000000pt" height="1200.000000pt" viewBox="0 0 1200.000000 1200.000000"
 preserveAspectRatio="xMidYMid meet">
<metadata>
Created by potrace 1.16, written by Peter Selinger 2001-2019
</metadata>
<g transform="translate(0.000000,1200.000000) scale(0.100000,-0.100000)"
fill="#000000" stroke="none">
<path d="M5625 10069 c-1307 -123 -2462 -850 -3134 -1974 -290 -484 -472
-1017 -548 -1600 -25 -197 -26 -799 0 -987 41 -304 99 -558 187 -818 469
-1396 1672 -2440 3113 -2704 294 -54 379 -61 757 -61 378 0 463 7 757 61 1115
204 2106 882 2715 1858 261 418 455 918 542 1396 55 301 61 380 61 765 -1 384
-7 461 -61 752 -215 1168 -943 2193 -1978 2788 -514 294 -1075 470 -1681 525
-129 12 -600 11 -730 -1z m750 -494 c828 -88 1576 -446 2165 -1035 579 -578
923 -1288 1032 -2125 20 -157 17 -718 -5 -870 -115 -786 -419 -1435 -936
-1994 -294 -319 -692 -610 -1088 -798 -803 -379 -1732 -451 -2569 -198 -586
178 -1085 476 -1514 905 -567 567 -908 1256 -1026 2076 -21 148 -30 616 -15
782 65 714 334 1380 780 1935 598 743 1465 1218 2414 1321 171 19 588 19 762
1z"/>
<path d="M4830 7095 l-1165 -1165 173 -172 172 -173 875 875 875 875 0 -1748
0 -1747 240 0 240 0 0 1747 0 1748 875 -875 875 -875 172 173 173 172 -1165
1165 c-641 641 -1167 1165 -1170 1165 -3 0 -529 -524 -1170 -1165z"/>
</g>
</svg>
